<mxfile host="app.diagrams.net" modified="2023-04-23T07:11:04.646Z" agent="Mozilla/5.0 (Windows NT 10.0; Win64; x64) AppleWebKit/537.36 (KHTML, like Gecko) Chrome/112.0.0.0 Safari/537.36" etag="4y0g45q0N4sCVCV_f6qf" version="21.2.1" type="github">
  <diagram id="C5RBs43oDa-KdzZeNtuy" name="Page-1">
    <mxGraphModel dx="1034" dy="447" grid="1" gridSize="10" guides="1" tooltips="1" connect="1" arrows="1" fold="1" page="1" pageScale="1" pageWidth="827" pageHeight="1169" math="0" shadow="0">
      <root>
        <mxCell id="WIyWlLk6GJQsqaUBKTNV-0" />
        <mxCell id="WIyWlLk6GJQsqaUBKTNV-1" parent="WIyWlLk6GJQsqaUBKTNV-0" />
        <mxCell id="k4lzjW5JPzNbYOQHA8DS-19" style="edgeStyle=orthogonalEdgeStyle;rounded=0;orthogonalLoop=1;jettySize=auto;html=1;exitX=0.5;exitY=1;exitDx=0;exitDy=0;entryX=0.5;entryY=0;entryDx=0;entryDy=0;" edge="1" parent="WIyWlLk6GJQsqaUBKTNV-1" source="WIyWlLk6GJQsqaUBKTNV-3" target="WIyWlLk6GJQsqaUBKTNV-6">
          <mxGeometry relative="1" as="geometry" />
        </mxCell>
        <mxCell id="WIyWlLk6GJQsqaUBKTNV-3" value="开始" style="rounded=1;whiteSpace=wrap;html=1;fontSize=12;glass=0;strokeWidth=1;shadow=0;" parent="WIyWlLk6GJQsqaUBKTNV-1" vertex="1">
          <mxGeometry x="25" y="60" width="80" height="40" as="geometry" />
        </mxCell>
        <mxCell id="k4lzjW5JPzNbYOQHA8DS-3" value="跨天" style="edgeStyle=orthogonalEdgeStyle;rounded=0;orthogonalLoop=1;jettySize=auto;html=1;" edge="1" parent="WIyWlLk6GJQsqaUBKTNV-1" source="WIyWlLk6GJQsqaUBKTNV-6" target="k4lzjW5JPzNbYOQHA8DS-5">
          <mxGeometry relative="1" as="geometry">
            <mxPoint x="180" y="180" as="targetPoint" />
          </mxGeometry>
        </mxCell>
        <mxCell id="k4lzjW5JPzNbYOQHA8DS-20" value="不跨天" style="edgeStyle=orthogonalEdgeStyle;rounded=0;orthogonalLoop=1;jettySize=auto;html=1;exitX=0.5;exitY=1;exitDx=0;exitDy=0;entryX=0.5;entryY=0;entryDx=0;entryDy=0;" edge="1" parent="WIyWlLk6GJQsqaUBKTNV-1" source="WIyWlLk6GJQsqaUBKTNV-6" target="WIyWlLk6GJQsqaUBKTNV-10">
          <mxGeometry relative="1" as="geometry" />
        </mxCell>
        <mxCell id="WIyWlLk6GJQsqaUBKTNV-6" value="时间范围是否跨天" style="rhombus;whiteSpace=wrap;html=1;shadow=0;fontFamily=Helvetica;fontSize=12;align=center;strokeWidth=1;spacing=6;spacingTop=-4;" parent="WIyWlLk6GJQsqaUBKTNV-1" vertex="1">
          <mxGeometry x="10" y="150" width="110" height="60" as="geometry" />
        </mxCell>
        <mxCell id="k4lzjW5JPzNbYOQHA8DS-21" value="跨小时" style="edgeStyle=orthogonalEdgeStyle;rounded=0;orthogonalLoop=1;jettySize=auto;html=1;exitX=1;exitY=0.5;exitDx=0;exitDy=0;entryX=0;entryY=0.5;entryDx=0;entryDy=0;" edge="1" parent="WIyWlLk6GJQsqaUBKTNV-1" source="WIyWlLk6GJQsqaUBKTNV-10" target="k4lzjW5JPzNbYOQHA8DS-18">
          <mxGeometry relative="1" as="geometry" />
        </mxCell>
        <mxCell id="k4lzjW5JPzNbYOQHA8DS-33" value="不跨小时" style="edgeStyle=orthogonalEdgeStyle;rounded=0;orthogonalLoop=1;jettySize=auto;html=1;exitX=0.5;exitY=1;exitDx=0;exitDy=0;entryX=0.5;entryY=0;entryDx=0;entryDy=0;" edge="1" parent="WIyWlLk6GJQsqaUBKTNV-1" source="WIyWlLk6GJQsqaUBKTNV-10" target="k4lzjW5JPzNbYOQHA8DS-32">
          <mxGeometry relative="1" as="geometry" />
        </mxCell>
        <mxCell id="WIyWlLk6GJQsqaUBKTNV-10" value="时间范围是否跨小时" style="rhombus;whiteSpace=wrap;html=1;shadow=0;fontFamily=Helvetica;fontSize=12;align=center;strokeWidth=1;spacing=6;spacingTop=-4;" parent="WIyWlLk6GJQsqaUBKTNV-1" vertex="1">
          <mxGeometry x="15" y="430" width="100" height="70" as="geometry" />
        </mxCell>
        <mxCell id="k4lzjW5JPzNbYOQHA8DS-7" style="edgeStyle=orthogonalEdgeStyle;rounded=0;orthogonalLoop=1;jettySize=auto;html=1;exitX=1;exitY=0.5;exitDx=0;exitDy=0;entryX=0;entryY=0.5;entryDx=0;entryDy=0;" edge="1" parent="WIyWlLk6GJQsqaUBKTNV-1" source="k4lzjW5JPzNbYOQHA8DS-5" target="k4lzjW5JPzNbYOQHA8DS-6">
          <mxGeometry relative="1" as="geometry" />
        </mxCell>
        <mxCell id="k4lzjW5JPzNbYOQHA8DS-5" value="分割整天，将整天的数据取出，以day作为map的key" style="rounded=0;whiteSpace=wrap;html=1;" vertex="1" parent="WIyWlLk6GJQsqaUBKTNV-1">
          <mxGeometry x="180" y="150" width="120" height="60" as="geometry" />
        </mxCell>
        <mxCell id="k4lzjW5JPzNbYOQHA8DS-9" style="edgeStyle=orthogonalEdgeStyle;rounded=0;orthogonalLoop=1;jettySize=auto;html=1;exitX=1;exitY=0.5;exitDx=0;exitDy=0;entryX=0;entryY=0.5;entryDx=0;entryDy=0;" edge="1" parent="WIyWlLk6GJQsqaUBKTNV-1" source="k4lzjW5JPzNbYOQHA8DS-6" target="k4lzjW5JPzNbYOQHA8DS-8">
          <mxGeometry relative="1" as="geometry" />
        </mxCell>
        <mxCell id="k4lzjW5JPzNbYOQHA8DS-6" value="分割出开始日期的整小时数据，以day作为map的key" style="rounded=0;whiteSpace=wrap;html=1;" vertex="1" parent="WIyWlLk6GJQsqaUBKTNV-1">
          <mxGeometry x="330" y="150" width="120" height="60" as="geometry" />
        </mxCell>
        <mxCell id="k4lzjW5JPzNbYOQHA8DS-11" style="edgeStyle=orthogonalEdgeStyle;rounded=0;orthogonalLoop=1;jettySize=auto;html=1;exitX=1;exitY=0.5;exitDx=0;exitDy=0;entryX=0;entryY=0.5;entryDx=0;entryDy=0;" edge="1" parent="WIyWlLk6GJQsqaUBKTNV-1" source="k4lzjW5JPzNbYOQHA8DS-8" target="k4lzjW5JPzNbYOQHA8DS-10">
          <mxGeometry relative="1" as="geometry" />
        </mxCell>
        <mxCell id="k4lzjW5JPzNbYOQHA8DS-8" value="分割出开始日期当前小时整分钟的数据，以day作为map的key" style="rounded=0;whiteSpace=wrap;html=1;" vertex="1" parent="WIyWlLk6GJQsqaUBKTNV-1">
          <mxGeometry x="480" y="150" width="120" height="60" as="geometry" />
        </mxCell>
        <mxCell id="k4lzjW5JPzNbYOQHA8DS-13" style="edgeStyle=orthogonalEdgeStyle;rounded=0;orthogonalLoop=1;jettySize=auto;html=1;exitX=0.5;exitY=1;exitDx=0;exitDy=0;entryX=0.5;entryY=0;entryDx=0;entryDy=0;" edge="1" parent="WIyWlLk6GJQsqaUBKTNV-1" source="k4lzjW5JPzNbYOQHA8DS-10" target="k4lzjW5JPzNbYOQHA8DS-12">
          <mxGeometry relative="1" as="geometry" />
        </mxCell>
        <mxCell id="k4lzjW5JPzNbYOQHA8DS-10" value="分割出开始日期当前分钟整秒的数据，以day作为map的key" style="rounded=0;whiteSpace=wrap;html=1;" vertex="1" parent="WIyWlLk6GJQsqaUBKTNV-1">
          <mxGeometry x="620" y="150" width="120" height="60" as="geometry" />
        </mxCell>
        <mxCell id="k4lzjW5JPzNbYOQHA8DS-15" style="edgeStyle=orthogonalEdgeStyle;rounded=0;orthogonalLoop=1;jettySize=auto;html=1;exitX=0;exitY=0.5;exitDx=0;exitDy=0;entryX=1;entryY=0.5;entryDx=0;entryDy=0;" edge="1" parent="WIyWlLk6GJQsqaUBKTNV-1" source="k4lzjW5JPzNbYOQHA8DS-12" target="k4lzjW5JPzNbYOQHA8DS-14">
          <mxGeometry relative="1" as="geometry" />
        </mxCell>
        <mxCell id="k4lzjW5JPzNbYOQHA8DS-12" value="分割出结束日期当前分钟的整秒的数据，以day作为map的key" style="rounded=0;whiteSpace=wrap;html=1;" vertex="1" parent="WIyWlLk6GJQsqaUBKTNV-1">
          <mxGeometry x="620" y="260" width="120" height="60" as="geometry" />
        </mxCell>
        <mxCell id="k4lzjW5JPzNbYOQHA8DS-17" style="edgeStyle=orthogonalEdgeStyle;rounded=0;orthogonalLoop=1;jettySize=auto;html=1;exitX=0;exitY=0.5;exitDx=0;exitDy=0;entryX=1;entryY=0.5;entryDx=0;entryDy=0;" edge="1" parent="WIyWlLk6GJQsqaUBKTNV-1" source="k4lzjW5JPzNbYOQHA8DS-14" target="k4lzjW5JPzNbYOQHA8DS-16">
          <mxGeometry relative="1" as="geometry" />
        </mxCell>
        <mxCell id="k4lzjW5JPzNbYOQHA8DS-14" value="分割出结束日期当前小时正分钟的数据，以day作为map的key" style="rounded=0;whiteSpace=wrap;html=1;" vertex="1" parent="WIyWlLk6GJQsqaUBKTNV-1">
          <mxGeometry x="480" y="260" width="120" height="60" as="geometry" />
        </mxCell>
        <mxCell id="k4lzjW5JPzNbYOQHA8DS-56" style="edgeStyle=orthogonalEdgeStyle;rounded=0;orthogonalLoop=1;jettySize=auto;html=1;entryX=0.5;entryY=0;entryDx=0;entryDy=0;" edge="1" parent="WIyWlLk6GJQsqaUBKTNV-1" source="k4lzjW5JPzNbYOQHA8DS-16" target="k4lzjW5JPzNbYOQHA8DS-45">
          <mxGeometry relative="1" as="geometry">
            <Array as="points">
              <mxPoint x="390" y="380" />
              <mxPoint x="740" y="380" />
            </Array>
          </mxGeometry>
        </mxCell>
        <mxCell id="k4lzjW5JPzNbYOQHA8DS-16" value="分割出结束日期的整小时数据，以day作为map的key" style="rounded=0;whiteSpace=wrap;html=1;" vertex="1" parent="WIyWlLk6GJQsqaUBKTNV-1">
          <mxGeometry x="330" y="260" width="120" height="60" as="geometry" />
        </mxCell>
        <mxCell id="k4lzjW5JPzNbYOQHA8DS-23" style="edgeStyle=orthogonalEdgeStyle;rounded=0;orthogonalLoop=1;jettySize=auto;html=1;exitX=1;exitY=0.5;exitDx=0;exitDy=0;entryX=0;entryY=0.5;entryDx=0;entryDy=0;" edge="1" parent="WIyWlLk6GJQsqaUBKTNV-1" source="k4lzjW5JPzNbYOQHA8DS-18" target="k4lzjW5JPzNbYOQHA8DS-22">
          <mxGeometry relative="1" as="geometry" />
        </mxCell>
        <mxCell id="k4lzjW5JPzNbYOQHA8DS-18" value="分割整小时，将整小时的数据取出，以day hour作为map的key" style="rounded=0;whiteSpace=wrap;html=1;" vertex="1" parent="WIyWlLk6GJQsqaUBKTNV-1">
          <mxGeometry x="180" y="435" width="120" height="60" as="geometry" />
        </mxCell>
        <mxCell id="k4lzjW5JPzNbYOQHA8DS-25" style="edgeStyle=orthogonalEdgeStyle;rounded=0;orthogonalLoop=1;jettySize=auto;html=1;exitX=1;exitY=0.5;exitDx=0;exitDy=0;entryX=0;entryY=0.5;entryDx=0;entryDy=0;" edge="1" parent="WIyWlLk6GJQsqaUBKTNV-1" source="k4lzjW5JPzNbYOQHA8DS-22" target="k4lzjW5JPzNbYOQHA8DS-24">
          <mxGeometry relative="1" as="geometry" />
        </mxCell>
        <mxCell id="k4lzjW5JPzNbYOQHA8DS-22" value="分割出开始时间开始小时的整分钟的数据，以day hour作为map的key" style="rounded=0;whiteSpace=wrap;html=1;" vertex="1" parent="WIyWlLk6GJQsqaUBKTNV-1">
          <mxGeometry x="330" y="435" width="120" height="60" as="geometry" />
        </mxCell>
        <mxCell id="k4lzjW5JPzNbYOQHA8DS-27" value="" style="edgeStyle=orthogonalEdgeStyle;rounded=0;orthogonalLoop=1;jettySize=auto;html=1;" edge="1" parent="WIyWlLk6GJQsqaUBKTNV-1" source="k4lzjW5JPzNbYOQHA8DS-24" target="k4lzjW5JPzNbYOQHA8DS-26">
          <mxGeometry relative="1" as="geometry" />
        </mxCell>
        <mxCell id="k4lzjW5JPzNbYOQHA8DS-24" value="分割出开始时间当前分钟的整秒数据，以day hour作为map的key" style="rounded=0;whiteSpace=wrap;html=1;" vertex="1" parent="WIyWlLk6GJQsqaUBKTNV-1">
          <mxGeometry x="470" y="435" width="120" height="60" as="geometry" />
        </mxCell>
        <mxCell id="k4lzjW5JPzNbYOQHA8DS-30" style="edgeStyle=orthogonalEdgeStyle;rounded=0;orthogonalLoop=1;jettySize=auto;html=1;exitX=0;exitY=0.5;exitDx=0;exitDy=0;entryX=1;entryY=0.5;entryDx=0;entryDy=0;" edge="1" parent="WIyWlLk6GJQsqaUBKTNV-1" source="k4lzjW5JPzNbYOQHA8DS-26" target="k4lzjW5JPzNbYOQHA8DS-28">
          <mxGeometry relative="1" as="geometry" />
        </mxCell>
        <mxCell id="k4lzjW5JPzNbYOQHA8DS-26" value="分割出结束时间分钟的整秒数据，以day hour作为map的key" style="rounded=0;whiteSpace=wrap;html=1;" vertex="1" parent="WIyWlLk6GJQsqaUBKTNV-1">
          <mxGeometry x="470" y="535" width="120" height="60" as="geometry" />
        </mxCell>
        <mxCell id="k4lzjW5JPzNbYOQHA8DS-53" style="edgeStyle=orthogonalEdgeStyle;rounded=0;orthogonalLoop=1;jettySize=auto;html=1;entryX=0;entryY=0.5;entryDx=0;entryDy=0;" edge="1" parent="WIyWlLk6GJQsqaUBKTNV-1" source="k4lzjW5JPzNbYOQHA8DS-28" target="k4lzjW5JPzNbYOQHA8DS-45">
          <mxGeometry relative="1" as="geometry">
            <Array as="points">
              <mxPoint x="390" y="650" />
            </Array>
          </mxGeometry>
        </mxCell>
        <mxCell id="k4lzjW5JPzNbYOQHA8DS-28" value="分割出结束时间结束小时的正分钟的数据，以day hour作为map的key" style="rounded=0;whiteSpace=wrap;html=1;" vertex="1" parent="WIyWlLk6GJQsqaUBKTNV-1">
          <mxGeometry x="330" y="535" width="120" height="60" as="geometry" />
        </mxCell>
        <mxCell id="k4lzjW5JPzNbYOQHA8DS-35" value="跨分钟" style="edgeStyle=orthogonalEdgeStyle;rounded=0;orthogonalLoop=1;jettySize=auto;html=1;exitX=1;exitY=0.5;exitDx=0;exitDy=0;" edge="1" parent="WIyWlLk6GJQsqaUBKTNV-1" source="k4lzjW5JPzNbYOQHA8DS-32" target="k4lzjW5JPzNbYOQHA8DS-34">
          <mxGeometry relative="1" as="geometry" />
        </mxCell>
        <mxCell id="k4lzjW5JPzNbYOQHA8DS-41" value="不跨分钟" style="edgeStyle=orthogonalEdgeStyle;rounded=0;orthogonalLoop=1;jettySize=auto;html=1;exitX=0.5;exitY=1;exitDx=0;exitDy=0;entryX=0.5;entryY=0;entryDx=0;entryDy=0;" edge="1" parent="WIyWlLk6GJQsqaUBKTNV-1" source="k4lzjW5JPzNbYOQHA8DS-32" target="k4lzjW5JPzNbYOQHA8DS-40">
          <mxGeometry relative="1" as="geometry" />
        </mxCell>
        <mxCell id="k4lzjW5JPzNbYOQHA8DS-32" value="时间范围是否跨分钟" style="rhombus;whiteSpace=wrap;html=1;" vertex="1" parent="WIyWlLk6GJQsqaUBKTNV-1">
          <mxGeometry x="7.5" y="710" width="115" height="60" as="geometry" />
        </mxCell>
        <mxCell id="k4lzjW5JPzNbYOQHA8DS-37" style="edgeStyle=orthogonalEdgeStyle;rounded=0;orthogonalLoop=1;jettySize=auto;html=1;entryX=0;entryY=0.5;entryDx=0;entryDy=0;" edge="1" parent="WIyWlLk6GJQsqaUBKTNV-1" source="k4lzjW5JPzNbYOQHA8DS-34" target="k4lzjW5JPzNbYOQHA8DS-36">
          <mxGeometry relative="1" as="geometry" />
        </mxCell>
        <mxCell id="k4lzjW5JPzNbYOQHA8DS-34" value="分割整分钟，将整分钟的数据取出，以day hour:minute作为map的key" style="rounded=0;whiteSpace=wrap;html=1;" vertex="1" parent="WIyWlLk6GJQsqaUBKTNV-1">
          <mxGeometry x="180" y="710" width="120" height="60" as="geometry" />
        </mxCell>
        <mxCell id="k4lzjW5JPzNbYOQHA8DS-39" style="edgeStyle=orthogonalEdgeStyle;rounded=0;orthogonalLoop=1;jettySize=auto;html=1;exitX=0.5;exitY=1;exitDx=0;exitDy=0;entryX=0.5;entryY=0;entryDx=0;entryDy=0;" edge="1" parent="WIyWlLk6GJQsqaUBKTNV-1" source="k4lzjW5JPzNbYOQHA8DS-36" target="k4lzjW5JPzNbYOQHA8DS-38">
          <mxGeometry relative="1" as="geometry" />
        </mxCell>
        <mxCell id="k4lzjW5JPzNbYOQHA8DS-36" value="分割出开始时间的分钟的整秒的数据，以day hour:minute作为map的key" style="rounded=0;whiteSpace=wrap;html=1;" vertex="1" parent="WIyWlLk6GJQsqaUBKTNV-1">
          <mxGeometry x="330" y="710" width="120" height="60" as="geometry" />
        </mxCell>
        <mxCell id="k4lzjW5JPzNbYOQHA8DS-54" style="edgeStyle=orthogonalEdgeStyle;rounded=0;orthogonalLoop=1;jettySize=auto;html=1;exitX=1;exitY=0.5;exitDx=0;exitDy=0;entryX=0.5;entryY=1;entryDx=0;entryDy=0;" edge="1" parent="WIyWlLk6GJQsqaUBKTNV-1" source="k4lzjW5JPzNbYOQHA8DS-38" target="k4lzjW5JPzNbYOQHA8DS-45">
          <mxGeometry relative="1" as="geometry" />
        </mxCell>
        <mxCell id="k4lzjW5JPzNbYOQHA8DS-38" value="分割出结束时间的分钟的整秒的数据，以day hour:minute作为map的key" style="rounded=0;whiteSpace=wrap;html=1;" vertex="1" parent="WIyWlLk6GJQsqaUBKTNV-1">
          <mxGeometry x="330" y="800" width="120" height="60" as="geometry" />
        </mxCell>
        <mxCell id="k4lzjW5JPzNbYOQHA8DS-44" style="edgeStyle=orthogonalEdgeStyle;rounded=0;orthogonalLoop=1;jettySize=auto;html=1;exitX=1;exitY=0.5;exitDx=0;exitDy=0;entryX=0;entryY=0.5;entryDx=0;entryDy=0;" edge="1" parent="WIyWlLk6GJQsqaUBKTNV-1" source="k4lzjW5JPzNbYOQHA8DS-40" target="k4lzjW5JPzNbYOQHA8DS-42">
          <mxGeometry relative="1" as="geometry" />
        </mxCell>
        <mxCell id="k4lzjW5JPzNbYOQHA8DS-40" value="时间范围是否跨分钟" style="rhombus;whiteSpace=wrap;html=1;" vertex="1" parent="WIyWlLk6GJQsqaUBKTNV-1">
          <mxGeometry y="880" width="127.5" height="80" as="geometry" />
        </mxCell>
        <mxCell id="k4lzjW5JPzNbYOQHA8DS-55" style="edgeStyle=orthogonalEdgeStyle;rounded=0;orthogonalLoop=1;jettySize=auto;html=1;entryX=0.5;entryY=1;entryDx=0;entryDy=0;" edge="1" parent="WIyWlLk6GJQsqaUBKTNV-1" source="k4lzjW5JPzNbYOQHA8DS-42" target="k4lzjW5JPzNbYOQHA8DS-45">
          <mxGeometry relative="1" as="geometry" />
        </mxCell>
        <mxCell id="k4lzjW5JPzNbYOQHA8DS-42" value="分割整秒，将整秒的数据取出，以day hour:minute:second作为map的key" style="rounded=0;whiteSpace=wrap;html=1;" vertex="1" parent="WIyWlLk6GJQsqaUBKTNV-1">
          <mxGeometry x="168.75" y="890" width="120" height="60" as="geometry" />
        </mxCell>
        <mxCell id="k4lzjW5JPzNbYOQHA8DS-45" value="结束" style="rounded=1;whiteSpace=wrap;html=1;" vertex="1" parent="WIyWlLk6GJQsqaUBKTNV-1">
          <mxGeometry x="680" y="620" width="120" height="60" as="geometry" />
        </mxCell>
      </root>
    </mxGraphModel>
  </diagram>
</mxfile>
